<svg width="28" height="38" viewBox="0 0 28 38" fill="none" xmlns="http://www.w3.org/2000/svg">
<path d="M26.25 13.125C26.0677 13.1238 25.8902 13.0657 25.7425 12.9587L14 4.57624L2.25754 12.9587C2.06915 13.0703 1.84578 13.1072 1.63152 13.0621C1.41727 13.0171 1.22769 12.8933 1.10023 12.7153C0.972757 12.5373 0.916659 12.3179 0.943006 12.1006C0.969353 11.8832 1.07623 11.6836 1.24254 11.5412L13.4925 2.79124C13.6407 2.68573 13.8181 2.62903 14 2.62903C14.182 2.62903 14.3593 2.68573 14.5075 2.79124L26.7575 11.5412C26.9069 11.6494 27.0183 11.802 27.0758 11.9772C27.1333 12.1525 27.134 12.3414 27.0777 12.517C27.0214 12.6927 26.9111 12.846 26.7624 12.9552C26.6138 13.0644 26.4345 13.1238 26.25 13.125Z" fill="#9E005D"/>
<path d="M4.375 7.875C4.14294 7.875 3.92038 7.78281 3.75628 7.61872C3.59219 7.45462 3.5 7.23206 3.5 7V3.5C3.5 3.26794 3.59219 3.04538 3.75628 2.88128C3.92038 2.71719 4.14294 2.625 4.375 2.625H7.875C8.10706 2.625 8.32962 2.71719 8.49372 2.88128C8.65781 3.04538 8.75 3.26794 8.75 3.5C8.75 3.73206 8.65781 3.95462 8.49372 4.11872C8.32962 4.28281 8.10706 4.375 7.875 4.375H5.25V7C5.25 7.23206 5.15781 7.45462 4.99372 7.61872C4.82962 7.78281 4.60706 7.875 4.375 7.875Z" fill="#9E005D"/>
<path d="M21.875 25.375H17.5C17.2679 25.375 17.0454 25.2828 16.8813 25.1187C16.7172 24.9546 16.625 24.7321 16.625 24.5V18.375H11.375V24.5C11.375 24.7321 11.2828 24.9546 11.1187 25.1187C10.9546 25.2828 10.7321 25.375 10.5 25.375H6.125C5.42881 25.375 4.76113 25.0984 4.26884 24.6062C3.77656 24.1139 3.5 23.4462 3.5 22.75V14C3.5 13.7679 3.59219 13.5454 3.75628 13.3813C3.92038 13.2172 4.14294 13.125 4.375 13.125C4.60706 13.125 4.82962 13.2172 4.99372 13.3813C5.15781 13.5454 5.25 13.7679 5.25 14V22.75C5.25 22.9821 5.34219 23.2046 5.50628 23.3687C5.67038 23.5328 5.89294 23.625 6.125 23.625H9.625V17.5C9.625 17.2679 9.71719 17.0454 9.88128 16.8813C10.0454 16.7172 10.2679 16.625 10.5 16.625H17.5C17.7321 16.625 17.9546 16.7172 18.1187 16.8813C18.2828 17.0454 18.375 17.2679 18.375 17.5V23.625H21.875C22.1071 23.625 22.3296 23.5328 22.4937 23.3687C22.6578 23.2046 22.75 22.9821 22.75 22.75V14C22.75 13.7679 22.8422 13.5454 23.0063 13.3813C23.1704 13.2172 23.3929 13.125 23.625 13.125C23.8571 13.125 24.0796 13.2172 24.2437 13.3813C24.4078 13.5454 24.5 13.7679 24.5 14V22.75C24.5 23.4462 24.2234 24.1139 23.7312 24.6062C23.2389 25.0984 22.5712 25.375 21.875 25.375Z" fill="#9E005D"/>
<path d="M8.71194 30.268V36H7.93594V33.392H4.84394V36H4.06794V30.268H4.84394V32.824H7.93594V30.268H8.71194ZM11.5923 31.884C11.8883 31.884 12.155 31.9333 12.3923 32.032C12.6296 32.1307 12.8323 32.2707 13.0003 32.452C13.1683 32.6333 13.2963 32.8533 13.3843 33.112C13.475 33.368 13.5203 33.6547 13.5203 33.972C13.5203 34.292 13.475 34.58 13.3843 34.836C13.2963 35.092 13.1683 35.3107 13.0003 35.492C12.8323 35.6733 12.6296 35.8133 12.3923 35.912C12.155 36.008 11.8883 36.056 11.5923 36.056C11.2936 36.056 11.0243 36.008 10.7843 35.912C10.547 35.8133 10.3443 35.6733 10.1763 35.492C10.0083 35.3107 9.87898 35.092 9.78831 34.836C9.70031 34.58 9.65631 34.292 9.65631 33.972C9.65631 33.6547 9.70031 33.368 9.78831 33.112C9.87898 32.8533 10.0083 32.6333 10.1763 32.452C10.3443 32.2707 10.547 32.1307 10.7843 32.032C11.0243 31.9333 11.2936 31.884 11.5923 31.884ZM11.5923 35.5C11.9923 35.5 12.291 35.3667 12.4883 35.1C12.6856 34.8307 12.7843 34.456 12.7843 33.976C12.7843 33.4933 12.6856 33.1173 12.4883 32.848C12.291 32.5787 11.9923 32.444 11.5923 32.444C11.3896 32.444 11.2123 32.4787 11.0603 32.548C10.911 32.6173 10.7856 32.7173 10.6843 32.848C10.5856 32.9787 10.511 33.14 10.4603 33.332C10.4123 33.5213 10.3883 33.736 10.3883 33.976C10.3883 34.456 10.487 34.8307 10.6843 35.1C10.8843 35.3667 11.187 35.5 11.5923 35.5ZM14.4234 36V31.948H14.8514C14.9527 31.948 15.0154 31.9973 15.0394 32.096L15.0914 32.512C15.2407 32.328 15.4087 32.1773 15.5954 32.06C15.782 31.9427 15.998 31.884 16.2434 31.884C16.5154 31.884 16.7354 31.96 16.9034 32.112C17.074 32.264 17.1967 32.4693 17.2714 32.728C17.33 32.5813 17.4047 32.4547 17.4954 32.348C17.5887 32.2413 17.6927 32.1533 17.8074 32.084C17.922 32.0147 18.0434 31.964 18.1714 31.932C18.302 31.9 18.434 31.884 18.5674 31.884C18.7807 31.884 18.97 31.9187 19.1354 31.988C19.3034 32.0547 19.4447 32.1533 19.5594 32.284C19.6767 32.4147 19.766 32.576 19.8274 32.768C19.8887 32.9573 19.9194 33.1747 19.9194 33.42V36H19.2034V33.42C19.2034 33.1027 19.134 32.8627 18.9954 32.7C18.8567 32.5347 18.6567 32.452 18.3954 32.452C18.278 32.452 18.166 32.4733 18.0594 32.516C17.9554 32.556 17.8634 32.616 17.7834 32.696C17.7034 32.776 17.6394 32.8773 17.5914 33C17.546 33.12 17.5234 33.26 17.5234 33.42V36H16.8074V33.42C16.8074 33.0947 16.742 32.852 16.6114 32.692C16.4807 32.532 16.29 32.452 16.0394 32.452C15.8634 32.452 15.7007 32.5 15.5514 32.596C15.402 32.6893 15.2647 32.8173 15.1394 32.98V36H14.4234ZM23.7135 33.532C23.7135 33.3667 23.6895 33.216 23.6415 33.08C23.5962 32.9413 23.5282 32.8227 23.4375 32.724C23.3495 32.6227 23.2415 32.5453 23.1135 32.492C22.9855 32.436 22.8402 32.408 22.6775 32.408C22.3362 32.408 22.0655 32.508 21.8655 32.708C21.6682 32.9053 21.5455 33.18 21.4975 33.532H23.7135ZM24.2895 35.432C24.2015 35.5387 24.0962 35.632 23.9735 35.712C23.8508 35.7893 23.7188 35.8533 23.5775 35.904C23.4388 35.9547 23.2948 35.992 23.1455 36.016C22.9962 36.0427 22.8482 36.056 22.7015 36.056C22.4215 36.056 22.1628 36.0093 21.9255 35.916C21.6908 35.82 21.4868 35.6813 21.3135 35.5C21.1428 35.316 21.0095 35.0893 20.9135 34.82C20.8175 34.5507 20.7695 34.2413 20.7695 33.892C20.7695 33.6093 20.8122 33.3453 20.8975 33.1C20.9855 32.8547 21.1108 32.6427 21.2735 32.464C21.4362 32.2827 21.6348 32.1413 21.8695 32.04C22.1042 31.936 22.3682 31.884 22.6615 31.884C22.9042 31.884 23.1282 31.9253 23.3335 32.008C23.5415 32.088 23.7202 32.2053 23.8695 32.36C24.0215 32.512 24.1402 32.7013 24.2255 32.928C24.3108 33.152 24.3535 33.408 24.3535 33.696C24.3535 33.808 24.3415 33.8827 24.3175 33.92C24.2935 33.9573 24.2482 33.976 24.1815 33.976H21.4735C21.4815 34.232 21.5162 34.4547 21.5775 34.644C21.6415 34.8333 21.7295 34.992 21.8415 35.12C21.9535 35.2453 22.0868 35.34 22.2415 35.404C22.3962 35.4653 22.5695 35.496 22.7615 35.496C22.9402 35.496 23.0935 35.476 23.2215 35.436C23.3522 35.3933 23.4642 35.348 23.5575 35.3C23.6508 35.252 23.7282 35.208 23.7895 35.168C23.8535 35.1253 23.9082 35.104 23.9535 35.104C24.0122 35.104 24.0575 35.1267 24.0895 35.172L24.2895 35.432Z" fill="#9E005D"/>
</svg>
